<svg xmlns="http://www.w3.org/2000/svg" viewBox="0 0 1000 430" role="img" aria-label="ქსელის ტოპოლოგია: ინტერნეტი, ფაირვოლი, ბირთვი, დისტრიბუცია, წვდომის დონე და სეგმენტირებული მოწყობილობები">
<style>text{font-family:"Inter Variable","Noto Sans Georgian Variable",system-ui,-apple-system,"Segoe UI",Roboto,sans-serif;letter-spacing:-.005em}text.m{font-family:ui-monospace,SFMono-Regular,Menlo,Consolas,"Noto Sans Georgian Variable",monospace;letter-spacing:.1em;text-transform:uppercase}</style>
      <defs>
        <pattern id="lgrid2" width="25" height="25" patternUnits="userSpaceOnUse">
          <path d="M25 0 L0 0 0 25" fill="none" stroke="#0F1A30" stroke-opacity=".05" stroke-width="1"/></pattern>
        <marker id="ar" viewBox="0 0 10 10" refX="8" refY="5" markerWidth="5" markerHeight="5" orient="auto-start-reverse">
          <path d="M0 1 L9 5 L0 9 z" fill="#4A5A73"/></marker>
      </defs>
      <rect width="1000" height="430" fill="#F6F8FC"/><rect width="1000" height="430" fill="url(#lgrid2)"/>

      <!-- tier labels -->
      <g class="m" font-size="9.5" fill="#8A97AB" text-anchor="end">
        <text x="132" y="48">გარე</text><text x="132" y="106">დაცვა</text><text x="132" y="168">ბირთვი</text>
        <text x="132" y="240">დისტრიბუცია</text><text x="132" y="306">წვდომა</text><text x="132" y="382">სეგმენტები</text>
      </g>
      <g stroke="#0F1A30" stroke-opacity=".06"><path d="M150 62 H976 M150 124 H976 M150 190 H976 M150 258 H976 M150 330 H976"/></g>

      <!-- links -->
      <g stroke="#1D6FF2" stroke-opacity=".45" stroke-width="2" fill="none">
        <path d="M560 56 V88"/><path d="M560 122 V148"/>
        <path d="M560 192 L340 216"/><path d="M560 192 L780 216"/>
        <path d="M340 250 L240 282"/><path d="M340 250 L440 282"/>
        <path d="M780 250 L680 282"/><path d="M780 250 L880 282"/>
      </g>
      <path d="M400 233 H720" stroke="#0EA5C0" stroke-opacity=".55" stroke-width="2" stroke-dasharray="6 5" fill="none"/>
      <text x="560" y="226" font-size="10.5" fill="#0E7490" text-anchor="middle">რეზერვირებული კავშირი</text>

      <!-- nodes -->
      <g>
        <rect x="504" y="26" width="112" height="30" rx="15" fill="#fff" stroke="#0F1A30" stroke-opacity=".18"/>
        <text x="560" y="46" font-size="12.5" fill="#38455A" text-anchor="middle">ინტერნეტი</text>
      </g>
      <g>
        <rect x="500" y="88" width="120" height="34" rx="8" fill="#fff" stroke="#D97706" stroke-opacity=".55" stroke-width="1.6"/>
        <path d="M521 98 l7-4 7 4 v7 c0 5-4 8-7 9 -3-1-7-4-7-9 z" fill="#D97706" fill-opacity=".25" stroke="#D97706" stroke-opacity=".7"/>
        <text x="576" y="110" font-size="12.5" fill="#38455A" text-anchor="middle">ფაირვოლი</text>
      </g>
      <g>
        <rect x="452" y="148" width="216" height="44" rx="9" fill="#1D6FF2"/>
        <text x="560" y="167" font-size="13.5" font-weight="600" fill="#fff" text-anchor="middle">ბირთვის კომუტატორი</text>
        <text x="560" y="184" font-size="10.5" fill="#C9DDFF" text-anchor="middle">L3 · მარშრუტიზაცია</text>
      </g>
      <g fill="#fff" stroke="#1D6FF2" stroke-opacity=".5" stroke-width="1.6">
        <rect x="262" y="216" width="156" height="34" rx="8"/><rect x="702" y="216" width="156" height="34" rx="8"/>
      </g>
      <g font-size="12.5" fill="#38455A" text-anchor="middle">
        <text x="340" y="238">დისტრიბუცია A</text><text x="780" y="238">დისტრიბუცია B</text>
      </g>
      <g fill="#fff" stroke="#0F1A30" stroke-opacity=".16">
        <rect x="176" y="282" width="128" height="32" rx="7"/><rect x="376" y="282" width="128" height="32" rx="7"/>
        <rect x="616" y="282" width="128" height="32" rx="7"/><rect x="816" y="282" width="128" height="32" rx="7"/>
      </g>
      <g font-size="11.5" fill="#4A5A73" text-anchor="middle">
        <text x="240" y="302">წვდომა · სართ. 1</text><text x="440" y="302">წვდომა · სართ. 2</text>
        <text x="680" y="302">წვდომა · სართ. 3</text><text x="880" y="302">წვდომა · სართ. 4</text>
      </g>

      <!-- segment groups -->
      <g stroke-width="2" fill="none">
        <path d="M212 314 V346" stroke="#1D6FF2" stroke-opacity=".5"/>
        <path d="M268 314 V346" stroke="#0EA5C0" stroke-opacity=".5"/>
        <path d="M412 314 V346" stroke="#16A34A" stroke-opacity=".5"/>
        <path d="M468 314 V346" stroke="#D97706" stroke-opacity=".5"/>
        <path d="M652 314 V346" stroke="#1D6FF2" stroke-opacity=".5"/>
        <path d="M708 314 V346" stroke="#0EA5C0" stroke-opacity=".5"/>
        <path d="M852 314 V346" stroke="#16A34A" stroke-opacity=".5"/>
        <path d="M908 314 V346" stroke="#0EA5C0" stroke-opacity=".5"/>
      </g>
      <g>
        <g fill="#1D6FF2" fill-opacity=".12" stroke="#1D6FF2" stroke-opacity=".4">
          <rect x="186" y="346" width="52" height="30" rx="6"/><rect x="626" y="346" width="52" height="30" rx="6"/></g>
        <g fill="#0EA5C0" fill-opacity=".12" stroke="#0EA5C0" stroke-opacity=".45">
          <rect x="242" y="346" width="52" height="30" rx="6"/><rect x="682" y="346" width="52" height="30" rx="6"/>
          <rect x="882" y="346" width="52" height="30" rx="6"/></g>
        <g fill="#16A34A" fill-opacity=".12" stroke="#16A34A" stroke-opacity=".45">
          <rect x="386" y="346" width="52" height="30" rx="6"/><rect x="826" y="346" width="52" height="30" rx="6"/></g>
        <g fill="#D97706" fill-opacity=".12" stroke="#D97706" stroke-opacity=".45">
          <rect x="442" y="346" width="52" height="30" rx="6"/></g>
      </g>
      <g stroke-width="1.7" fill="none" stroke-linecap="round" stroke-linejoin="round">
        <g stroke="#1D6FF2" transform="translate(204,354) scale(.65)"><rect x="2" y="3" width="20" height="14" rx="2"/><path d="M8 21h8M12 17v4"/></g>
        <g stroke="#1D6FF2" transform="translate(644,354) scale(.65)"><rect x="2" y="3" width="20" height="14" rx="2"/><path d="M8 21h8M12 17v4"/></g>
        <g stroke="#0EA5C0" transform="translate(260,354) scale(.65)"><path d="M14.5 4h-5L7 7H4a2 2 0 0 0-2 2v9a2 2 0 0 0 2 2h16a2 2 0 0 0 2-2V9a2 2 0 0 0-2-2h-3l-2.5-3z"/><circle cx="12" cy="13" r="3"/></g>
        <g stroke="#0EA5C0" transform="translate(700,354) scale(.65)"><path d="M14.5 4h-5L7 7H4a2 2 0 0 0-2 2v9a2 2 0 0 0 2 2h16a2 2 0 0 0 2-2V9a2 2 0 0 0-2-2h-3l-2.5-3z"/><circle cx="12" cy="13" r="3"/></g>
        <g stroke="#0EA5C0" transform="translate(900,354) scale(.65)"><path d="M14.5 4h-5L7 7H4a2 2 0 0 0-2 2v9a2 2 0 0 0 2 2h16a2 2 0 0 0 2-2V9a2 2 0 0 0-2-2h-3l-2.5-3z"/><circle cx="12" cy="13" r="3"/></g>
        <g stroke="#16A34A" transform="translate(404,354) scale(.65)"><rect x="3" y="11" width="18" height="11" rx="2"/><path d="M7 11V7a5 5 0 0 1 10 0v4"/></g>
        <g stroke="#16A34A" transform="translate(844,354) scale(.65)"><rect x="3" y="11" width="18" height="11" rx="2"/><path d="M7 11V7a5 5 0 0 1 10 0v4"/></g>
        <g stroke="#D97706" transform="translate(460,354) scale(.65)"><path d="M5 13a10 10 0 0 1 14 0"/><path d="M8.5 16.5a5 5 0 0 1 7 0"/><path d="M2 8.82a15 15 0 0 1 20 0"/><path d="M12 20h.01"/></g>
      </g>

      <!-- legend -->
      <g font-size="11.5" fill="#4A5A73">
        <rect x="176" y="396" width="10" height="10" rx="3" fill="#1D6FF2"/><text x="193" y="405">VLAN 10 · ოფისი</text>
        <rect x="316" y="396" width="10" height="10" rx="3" fill="#0EA5C0"/><text x="333" y="405">VLAN 20 · ვიდეო</text>
        <rect x="456" y="396" width="10" height="10" rx="3" fill="#16A34A"/><text x="473" y="405">VLAN 30 · დაშვება</text>
        <rect x="606" y="396" width="10" height="10" rx="3" fill="#D97706"/><text x="623" y="405">VLAN 40 · სტუმარი</text>
      </g>
    </svg>
